<svg width="20" height="24" viewBox="0 0 20 24" fill="none" xmlns="http://www.w3.org/2000/svg">
<path d="M19.4876 18.7119C19.1311 19.5356 18.7091 20.2937 18.2202 20.9908C17.5537 21.941 17.008 22.5988 16.5874 22.964C15.9355 23.5636 15.237 23.8706 14.489 23.8881C13.9521 23.8881 13.3045 23.7353 12.5507 23.4253C11.7944 23.1168 11.0994 22.964 10.4639 22.964C9.79745 22.964 9.08266 23.1168 8.3181 23.4253C7.55237 23.7353 6.93551 23.8968 6.46388 23.9128C5.74661 23.9434 5.03167 23.6276 4.31803 22.964C3.86256 22.5667 3.29285 21.8857 2.61035 20.9209C1.8781 19.8906 1.27608 18.6959 0.804449 17.3338C0.299348 15.8626 0.0461426 14.438 0.0461426 13.0587C0.0461426 11.4788 0.387533 10.1162 1.07133 8.97429C1.60874 8.05707 2.32368 7.33355 3.21848 6.8024C4.11329 6.27125 5.08012 6.00058 6.12132 5.98326C6.69103 5.98326 7.43814 6.15949 8.36655 6.50583C9.29235 6.85333 9.8868 7.02955 10.1474 7.02955C10.3423 7.02955 11.0027 6.8235 12.1221 6.41269C13.1808 6.03172 14.0743 5.87398 14.8063 5.93612C16.7897 6.09619 18.2798 6.87807 19.2708 8.2867C17.4969 9.36152 16.6194 10.8669 16.6369 12.7981C16.6529 14.3024 17.1986 15.5541 18.2711 16.548C18.7571 17.0093 19.2999 17.3659 19.9038 17.6191C19.7729 17.9989 19.6346 18.3627 19.4876 18.7119V18.7119ZM14.9387 0.811478C14.9387 1.9905 14.5079 3.09134 13.6494 4.11027C12.6133 5.32158 11.3601 6.02154 10.001 5.91109C9.98372 5.76964 9.97368 5.62077 9.97368 5.46434C9.97368 4.33248 10.4664 3.12117 11.3414 2.13076C11.7783 1.6293 12.3339 1.21234 13.0076 0.879726C13.6799 0.552073 14.3159 0.370873 14.9139 0.339844C14.9314 0.49746 14.9387 0.655086 14.9387 0.811462V0.811478Z" fill="black"/>
</svg>
