<svg width="24" height="25" viewBox="0 0 24 25" fill="none" xmlns="http://www.w3.org/2000/svg">
<path fill-rule="evenodd" clip-rule="evenodd" d="M23.3161 12.8952C23.3161 12.0594 23.241 11.2557 23.1017 10.4841H12.0001V15.0437H18.3439C18.0706 16.5172 17.2401 17.7656 15.9917 18.6014V21.559H19.8012C22.0302 19.5069 23.3161 16.485 23.3161 12.8952Z" fill="#4285F4"/>
<path fill-rule="evenodd" clip-rule="evenodd" d="M11.9999 24.4147C15.1826 24.4147 17.8508 23.3592 19.8011 21.5589L15.9916 18.6013C14.9361 19.3086 13.5859 19.7265 11.9999 19.7265C8.92982 19.7265 6.33121 17.653 5.40428 14.8668H1.46619V17.9209C3.40577 21.7732 7.39208 24.4147 11.9999 24.4147Z" fill="#34A853"/>
<path fill-rule="evenodd" clip-rule="evenodd" d="M5.40438 14.8671C5.16863 14.1599 5.03468 13.4044 5.03468 12.6275C5.03468 11.8506 5.16863 11.0951 5.40438 10.3879V7.33386H1.46629C0.66795 8.92517 0.212524 10.7254 0.212524 12.6275C0.212524 14.5296 0.66795 16.3299 1.46629 17.9212L5.40438 14.8671Z" fill="#FBBC05"/>
<path fill-rule="evenodd" clip-rule="evenodd" d="M11.9999 5.52805C13.7305 5.52805 15.2844 6.12279 16.506 7.29082L19.8868 3.90995C17.8455 2.00788 15.1772 0.839844 11.9999 0.839844C7.39208 0.839844 3.40577 3.48132 1.46619 7.33368L5.40428 10.3877C6.33121 7.60158 8.92982 5.52805 11.9999 5.52805Z" fill="#EA4335"/>
</svg>
