<svg width="29" height="25" viewBox="0 0 29 25" fill="none" xmlns="http://www.w3.org/2000/svg">
<path d="M9.12074 24.4148C20.0636 24.4148 26.0479 15.3458 26.0479 7.48139C26.0479 7.22384 26.0426 6.96746 26.031 6.71214C27.1954 5.86929 28.2004 4.8257 28.9987 3.6303C27.9326 4.10439 26.7855 4.42348 25.5822 4.56735C26.8105 3.83057 27.7534 2.66496 28.1983 1.27557C27.0305 1.96861 25.7529 2.45717 24.4206 2.72019C23.3349 1.56336 21.7894 0.839844 20.0779 0.839844C16.7925 0.839844 14.1283 3.50512 14.1283 6.79047C14.1283 7.25755 14.1806 7.71172 14.2827 8.1475C9.3381 7.89861 4.95363 5.53038 2.01931 1.92936C1.49081 2.83761 1.21282 3.86985 1.21375 4.92068C1.21375 6.98549 2.26401 8.80825 3.86122 9.87467C2.91645 9.8458 1.99243 9.59052 1.16683 9.13029C1.16595 9.15528 1.16595 9.17962 1.16595 9.20632C1.16595 12.0885 3.21662 14.495 5.93883 15.0403C5.42756 15.1796 4.89999 15.25 4.37009 15.2497C3.98741 15.2497 3.61445 15.212 3.25198 15.1424C4.00939 17.5071 6.20564 19.2279 8.80955 19.276C6.77332 20.8726 4.2083 21.8235 1.4205 21.8235C0.94626 21.8239 0.472407 21.7964 0.00140381 21.7411C2.63438 23.4293 5.76078 24.4144 9.12104 24.4144" fill="#1D9BF0"/>
</svg>
